# WaveFront *.obj file (generated by CINEMA 4D)

mtllib ./rugRound.mtl

v 0.46000000834465 0.00999999977648 0
v 0.46000000834465 0 0
v 0.44432589411736 0.00999999977648 0.11905670166016
v 0.44432589411736 0 0.11905670166016
v 0.44432589411736 0 -0.1190567985177
v 0.44432589411736 0.00999999977648 -0.1190567985177
v -0.32526910305023 0 -0.32526910305023
v -0.23000000417233 0 -0.39837169647217
v -0.32526910305023 0.00999999977648 -0.32526910305023
v -0.23000000417233 0.00999999977648 -0.39837169647217
v 0.39837169647217 0.00999999977648 0.23000000417233
v 0.39837169647217 0 0.23000000417233
v 0.32526910305023 0.00999999977648 0.32526910305023
v 0.32526910305023 0 0.32526910305023
v 0.23000000417233 0 -0.39837169647217
v 0.32526910305023 0 -0.32526910305023
v 0.23000000417233 0.00999999977648 -0.39837169647217
v 0.32526910305023 0.00999999977648 -0.32526910305023
v -0.44432589411736 0 -0.1190567985177
v -0.44432589411736 0.00999999977648 -0.1190567985177
v -0.46000000834465 0 0
v -0.46000000834465 0.00999999977648 0
v -0.44432589411736 0 0.11905670166016
v -0.44432589411736 0.00999999977648 0.11905670166016
v -0.39837169647217 0 0.23000000417233
v -0.39837169647217 0.00999999977648 0.23000000417233
v -0.32526910305023 0 0.32526910305023
v -0.32526910305023 0.00999999977648 0.32526910305023
v 0 0 -0.46000000834465
v 0.1190567985177 0 -0.44432589411736
v 0 0.00999999977648 -0.46000000834465
v 0.1190567985177 0.00999999977648 -0.44432589411736
v -0.11905670166016 0 0.44432589411736
v -0.23000000417233 0 0.39837169647217
v -0.11905670166016 0.00999999977648 0.44432589411736
v -0.23000000417233 0.00999999977648 0.39837169647217
v 0.23000000417233 0 0.39837169647217
v 0.1190567985177 0 0.44432589411736
v 0.23000000417233 0.00999999977648 0.39837169647217
v 0.1190567985177 0.00999999977648 0.44432589411736
v -0.11905670166016 0 -0.44432589411736
v -0.11905670166016 0.00999999977648 -0.44432589411736
v 0 0 0.46000000834465
v 0 0.00999999977648 0.46000000834465
v 0.39837169647217 0.00999999977648 -0.23000000417233
v 0.39837169647217 0 -0.23000000417233
v -0.39837169647217 0 -0.23000000417233
v -0.39837169647217 0.00999999977648 -0.23000000417233
v 0.35857260227203 0.00999999977648 0
v 0.34635451436043 0.00999999977648 -0.09280540049076
v 0.3105328977108 0.00999999977648 -0.17928630113602
v 0.25354909896851 0.00999999977648 -0.25354909896851
v 0.17928630113602 0.00999999977648 -0.3105328977108
v 0.09280540049076 0.00999999977648 -0.34635451436043
v 0 0.00999999977648 -0.35857260227203
v -0.09280540049076 0.00999999977648 -0.34635451436043
v -0.17928630113602 0.00999999977648 -0.3105328977108
v -0.25354909896851 0.00999999977648 -0.25354909896851
v -0.31053298711777 0.00999999977648 -0.17928630113602
v -0.34635451436043 0.00999999977648 -0.09280540049076
v -0.35857260227203 0.00999999977648 0
v -0.34635451436043 0.00999999977648 0.09280540049076
v -0.31053298711777 0.00999999977648 0.17928630113602
v -0.25354909896851 0.00999999977648 0.25354909896851
v -0.17928630113602 0.00999999977648 0.31053298711777
v -0.09280540049076 0.00999999977648 0.34635451436043
v 0 0.00999999977648 0.35857260227203
v 0.09280540049076 0.00999999977648 0.34635451436043
v 0.17928630113602 0.00999999977648 0.31053298711777
v 0.25354909896851 0.00999999977648 0.25354909896851
v 0.3105328977108 0.00999999977648 0.17928630113602
v 0.34635451436043 0.00999999977648 0.09280540049076
v 0.30728921294212 0.00999999977648 0
v 0.29681861400604 0.00999999977648 0.07953230291605
v 0.29681861400604 0.00999999977648 -0.07953230291605
v 0.26612031459808 0.00999999977648 -0.15364460647106
v 0.26612031459808 0.00999999977648 0.15364460647106
v 0.21728630363941 0.00999999977648 -0.21728630363941
v 0.21728630363941 0.00999999977648 0.21728630363941
v 0.15364460647106 0.00999999977648 -0.26612031459808
v 0.15364460647106 0.00999999977648 0.26612031459808
v 0.07953230291605 0.00999999977648 -0.29681861400604
v 0.07953230291605 0.00999999977648 0.29681861400604
v 0 0.00999999977648 0.30728930234909
v 0 0.00999999977648 -0.30728921294212
v -0.07953230291605 0.00999999977648 0.29681861400604
v -0.07953230291605 0.00999999977648 -0.29681861400604
v -0.15364460647106 0.00999999977648 0.26612031459808
v -0.15364460647106 0.00999999977648 -0.26612031459808
v -0.21728630363941 0.00999999977648 0.21728630363941
v -0.21728630363941 0.00999999977648 -0.21728630363941
v -0.26612031459808 0.00999999977648 0.15364460647106
v -0.26612031459808 0.00999999977648 -0.15364460647106
v -0.29681861400604 0.00999999977648 0.07953230291605
v -0.29681861400604 0.00999999977648 -0.07953230291605
v -0.30728930234909 0.00999999977648 0
# 96 vertices

vn 0.96592617034912 0 0.2588178217411
vn 1 0 0
vn 0.96592617034912 0 -0.2588178217411
vn -0.70710676908493 0 -0.70710676908493
vn -0.50001096725464 0 -0.86601907014847
vn 0.70710676908493 0 0.70710676908493
vn 0.86601907014847 0 0.50001096725464
vn 0.50001096725464 0 -0.86601907014847
vn 0.70710676908493 0 -0.70710676908493
vn -1 0 0
vn -0.96592617034912 0 -0.2588178217411
vn -0.96592617034912 0 0.2588178217411
vn -0.70710676908493 0 0.70710676908493
vn -0.86601907014847 0 0.50001096725464
vn 0.13050138950348 0 -0.99144810438156
vn 0.2588178217411 0 -0.96592617034912
vn -0.2588178217411 0 0.96592617034912
vn -0.50001096725464 0 0.86601907014847
vn 0.50001096725464 0 0.86601907014847
vn 0.2588178217411 0 0.96592617034912
vn -0.2588178217411 0 -0.96592617034912
vn -0.13050138950348 0 -0.99144810438156
vn -0.13050138950348 0 0.99144810438156
vn 0.86601907014847 0 -0.50001096725464
vn -0.86601907014847 0 -0.50001096725464
vn 0.13050138950348 0 0.99144810438156
vn 0 1 0
vn 0 -1 0
# 28 normals

vt -22.68301963806152 0.39370083808899 0
vt -17.95529937744141 0.39370083808899 0
vt -17.95529937744141 0 0
vt -22.68301963806152 0 0
vt -13.22758007049561 0 0
vt -13.22758007049561 0.39370083808899 0
vt 27.75649070739746 0.39370083808899 0
vt 27.75649070739746 0 0
vt 23.02877044677734 0 0
vt 23.02877044677734 0.39370083808899 0
vt -27.75649070739746 0.39370083808899 0
vt -23.02877044677734 0.39370083808899 0
vt -23.02877044677734 0 0
vt -27.75649070739746 0 0
vt -26.02602005004883 0.39370083808899 0
vt -21.29829978942871 0.39370083808899 0
vt -21.29829978942871 0 0
vt -26.02602005004883 0 0
vt 5.70686292648315 0.39370083808899 0
vt 5.70686292648315 0 0
vt 0.97914302349091 0 0
vt 0.97914302349091 0.39370083808899 0
vt 22.68301963806152 0 0
vt 17.95529937744141 0 0
vt 17.95529937744141 0.39370083808899 0
vt 22.68301963806152 0.39370083808899 0
vt 13.22758007049561 0 0
vt 13.22758007049561 0.39370083808899 0
vt -7.43732881546021 0.39370083808899 0
vt -7.43732881546021 0 0
vt -12.16504955291748 0 0
vt -12.16504955291748 0.39370083808899 0
vt -0.97914302349091 0.39370083808899 0
vt -0.97914302349091 0 0
vt -5.70686292648315 0 0
vt -5.70686292648315 0.39370083808899 0
vt 26.02602005004883 0 0
vt 21.29829978942871 0 0
vt 21.29829978942871 0.39370083808899 0
vt 26.02602005004883 0.39370083808899 0
vt 12.16504955291748 0 0
vt 7.43732881546021 0 0
vt 7.43732881546021 0.39370083808899 0
vt 12.16504955291748 0.39370083808899 0
vt 0.61709141731262 13.42296028137207 0
vt 0 18.1102409362793 0
vt 0.61709141731262 22.79750823974609 0
vt 2.42631101608276 9.05511856079102 0
vt 2.42631101608276 27.16534805297852 0
vt 5.30436515808105 5.30436515808105 0
vt 3.99320602416992 18.1102409362793 0
vt 4.47423219680786 14.45648002624512 0
vt 5.88453006744385 11.05171966552734 0
vt 9.05511856079102 2.42631101608276 0
vt 8.12798881530762 8.12798881530762 0
vt 11.05171966552734 5.88453006744385 0
vt 13.42296028137207 0.61709141731262 0
vt 14.45648002624512 4.4742317199707 0
vt 18.1102409362793 0 0
vt 18.1102409362793 3.99320602416992 0
vt 22.79751014709473 0.61709141731262 0
vt 21.76399040222168 4.4742317199707 0
vt 25.16875076293945 5.88453006744385 0
vt 27.16534996032715 2.42631101608276 0
vt 28.09247970581055 8.12798881530762 0
vt 30.91610908508301 5.30436515808105 0
vt 30.33593940734863 11.05171966552734 0
vt 31.74624061584473 14.45648002624512 0
vt 33.79415893554688 9.05511856079102 0
vt 32.22726821899414 18.1102409362793 0
vt 33.79415893554688 27.16534805297852 0
vt 31.74624061584473 21.76398849487305 0
vt 30.91610908508301 30.91610717773438 0
vt 30.33593940734863 25.16875076293945 0
vt 28.09247970581055 28.09247970581055 0
vt 27.16534996032715 33.79415893554688 0
vt 25.16875076293945 30.3359375 0
vt 22.79751014709473 35.60337829589844 0
vt 21.76399040222168 31.74623870849609 0
vt 18.1102409362793 36.22046661376953 0
vt 18.1102409362793 32.22726821899414 0
vt 14.45648002624512 31.74623870849609 0
vt 13.42296028137207 35.60337829589844 0
vt 11.05171966552734 30.3359375 0
vt 9.05511856079102 33.79415893554688 0
vt 8.12798881530762 28.09247970581055 0
vt 5.88453006744385 25.16875076293945 0
vt 5.30436515808105 30.91610717773438 0
vt 4.47423219680786 21.76398849487305 0
vt 35.60337829589844 13.42296028137207 0
vt 35.60337829589844 22.79750823974609 0
vt 36.2204704284668 18.1102409362793 0
vt -0.61709141731262 22.79750823974609 0
vt -0.61709141731262 13.42296028137207 0
vt -2.42631101608276 9.05511856079102 0
vt -2.42631101608276 27.16534805297852 0
vt -5.30436515808105 5.30436515808105 0
vt -5.30436515808105 30.91610717773438 0
vt -9.05511856079102 33.79415893554688 0
vt -9.05511856079102 2.42631101608276 0
vt -13.42296028137207 35.60337829589844 0
vt -13.42296028137207 0.61709141731262 0
vt -18.1102409362793 36.22046661376953 0
vt -18.1102409362793 0 0
vt -22.79751014709473 35.60337829589844 0
vt -22.79751014709473 0.61709141731262 0
vt -27.16534996032715 33.79415893554688 0
vt -27.16534996032715 2.42631101608276 0
vt -30.91610908508301 30.91610717773438 0
vt -30.91610908508301 5.30436515808105 0
vt -33.79415893554688 27.16534805297852 0
vt -33.79415893554688 9.05511856079102 0
vt -35.60337829589844 22.79750823974609 0
vt -35.60337829589844 13.42296028137207 0
vt -36.2204704284668 18.1102409362793 0
vt 6.42446422576904 14.97904014587402 0
vt 6.01223516464233 18.1102409362793 0
vt 6.42446422576904 21.24142837524414 0
vt 7.63305997848511 12.06123924255371 0
vt 7.63305997848511 24.15924072265625 0
vt 9.55565738677979 9.55565643310547 0
vt 9.55565738677979 26.66481781005859 0
vt 12.06124019622803 7.63305950164795 0
vt 12.06124019622803 28.58740997314453 0
vt 14.97904014587402 6.42446422576904 0
vt 14.97904014587402 29.7960090637207 0
vt 18.1102409362793 30.2082405090332 0
vt 18.1102409362793 6.01223468780518 0
vt 21.24143028259277 29.7960090637207 0
vt 21.24143028259277 6.42446422576904 0
vt 24.15924072265625 28.58740997314453 0
vt 24.15924072265625 7.63305950164795 0
vt 26.66481971740723 26.66481781005859 0
vt 26.66481971740723 9.55565643310547 0
vt 28.58740997314453 24.15924072265625 0
vt 28.58740997314453 12.06123924255371 0
vt 29.7960090637207 21.24142837524414 0
vt 29.7960090637207 14.97904014587402 0
vt 30.2082405090332 18.1102409362793 0
# 139 texture coordinates

o rugRound
usemtl carpet
f 2/3/2 1/2/2 3/1/1
f 3/1/1 4/4/1 2/3/2
f 1/2/2 2/3/2 5/5/3
f 5/5/3 6/6/3 1/2/2
f 8/9/5 7/8/4 9/7/4
f 9/7/4 10/10/5 8/9/5
f 12/13/7 11/12/7 13/11/6
f 13/11/6 14/14/6 12/13/7
f 4/17/1 3/16/1 11/15/7
f 11/15/7 12/18/7 4/17/1
f 16/21/9 15/20/8 17/19/8
f 17/19/8 18/22/9 16/21/9
f 20/25/11 19/24/11 21/23/10
f 21/23/10 22/26/10 20/25/11
f 22/28/10 21/27/10 23/24/12
f 23/24/12 24/25/12 22/28/10
f 26/22/14 25/21/14 27/20/13
f 27/20/13 28/19/13 26/22/14
f 30/27/16 29/24/15 31/25/15
f 31/25/15 32/28/16 30/27/16
f 34/31/18 33/30/17 35/29/17
f 35/29/17 36/32/18 34/31/18
f 38/18/20 37/17/19 39/16/19
f 39/16/19 40/15/20 38/18/20
f 29/24/22 41/23/21 42/26/21
f 42/26/21 31/25/22 29/24/22
f 27/35/13 34/34/18 36/33/18
f 36/33/18 28/36/13 27/35/13
f 33/3/17 43/5/23 44/6/23
f 44/6/23 35/2/17 33/3/17
f 46/30/24 45/29/24 6/32/3
f 6/32/3 5/31/3 46/30/24
f 16/34/9 18/33/9 45/36/24
f 45/36/24 46/35/24 16/34/9
f 48/39/25 47/38/25 19/37/11
f 19/37/11 20/40/11 48/39/25
f 24/43/12 23/42/12 25/41/14
f 25/41/14 26/44/14 24/43/12
f 9/10/4 7/9/4 47/8/25
f 47/8/25 48/7/25 9/10/4
f 41/38/21 8/37/5 10/40/5
f 10/40/5 42/39/21 41/38/21
f 37/14/19 14/13/6 13/12/6
f 13/12/6 39/11/19 37/14/19
f 15/42/8 30/41/16 32/44/16
f 32/44/16 17/43/8 15/42/8
f 43/4/26 38/3/20 40/2/20
f 40/2/20 44/1/26 43/4/26
f 3/47/27 1/46/27 6/45/27
f 6/45/27 45/48/27 3/47/27
f 45/48/27 11/49/27 3/47/27
f 45/48/27 18/50/27 11/49/27
f 18/50/27 49/51/27 11/49/27
f 18/50/27 50/52/27 49/51/27
f 18/50/27 51/53/27 50/52/27
f 18/50/27 17/54/27 51/53/27
f 17/54/27 52/55/27 51/53/27
f 17/54/27 53/56/27 52/55/27
f 17/54/27 32/57/27 53/56/27
f 32/57/27 54/58/27 53/56/27
f 32/57/27 31/59/27 54/58/27
f 31/59/27 55/60/27 54/58/27
f 31/59/27 42/61/27 55/60/27
f 42/61/27 56/62/27 55/60/27
f 42/61/27 57/63/27 56/62/27
f 42/61/27 10/64/27 57/63/27
f 10/64/27 58/65/27 57/63/27
f 10/64/27 9/66/27 58/65/27
f 9/66/27 59/67/27 58/65/27
f 9/66/27 60/68/27 59/67/27
f 9/66/27 48/69/27 60/68/27
f 48/69/27 61/70/27 60/68/27
f 61/70/27 48/69/27 26/71/27
f 62/72/27 61/70/27 26/71/27
f 62/72/27 26/71/27 28/73/27
f 63/74/27 62/72/27 28/73/27
f 64/75/27 63/74/27 28/73/27
f 64/75/27 28/73/27 36/76/27
f 65/77/27 64/75/27 36/76/27
f 65/77/27 36/76/27 35/78/27
f 66/79/27 65/77/27 35/78/27
f 66/79/27 35/78/27 44/80/27
f 67/81/27 66/79/27 44/80/27
f 68/82/27 67/81/27 44/80/27
f 68/82/27 44/80/27 40/83/27
f 69/84/27 68/82/27 40/83/27
f 69/84/27 40/83/27 39/85/27
f 70/86/27 69/84/27 39/85/27
f 71/87/27 70/86/27 39/85/27
f 71/87/27 39/85/27 13/88/27
f 72/89/27 71/87/27 13/88/27
f 49/51/27 72/89/27 13/88/27
f 13/88/27 11/49/27 49/51/27
f 48/69/27 20/90/27 26/71/27
f 20/90/27 24/91/27 26/71/27
f 20/90/27 22/92/27 24/91/27
f 5/94/28 2/46/28 4/93/28
f 4/93/28 46/95/28 5/94/28
f 4/93/28 12/96/28 46/95/28
f 12/96/28 16/97/28 46/95/28
f 12/96/28 14/98/28 16/97/28
f 14/98/28 37/99/28 16/97/28
f 37/99/28 15/100/28 16/97/28
f 37/99/28 38/101/28 15/100/28
f 38/101/28 30/102/28 15/100/28
f 38/101/28 43/103/28 30/102/28
f 43/103/28 29/104/28 30/102/28
f 43/103/28 33/105/28 29/104/28
f 33/105/28 41/106/28 29/104/28
f 33/105/28 34/107/28 41/106/28
f 34/107/28 8/108/28 41/106/28
f 34/107/28 27/109/28 8/108/28
f 27/109/28 7/110/28 8/108/28
f 27/109/28 25/111/28 7/110/28
f 25/111/28 47/112/28 7/110/28
f 25/111/28 23/113/28 47/112/28
f 23/113/28 19/114/28 47/112/28
f 23/113/28 21/115/28 19/114/28
f 74/118/27 73/117/27 75/116/27
f 75/116/27 76/119/27 74/118/27
f 76/119/27 77/120/27 74/118/27
f 76/119/27 78/121/27 77/120/27
f 78/121/27 79/122/27 77/120/27
f 78/121/27 80/123/27 79/122/27
f 80/123/27 81/124/27 79/122/27
f 80/123/27 82/125/27 81/124/27
f 82/125/27 83/126/27 81/124/27
f 82/125/27 84/127/27 83/126/27
f 82/125/27 85/128/27 84/127/27
f 85/128/27 86/129/27 84/127/27
f 85/128/27 87/130/27 86/129/27
f 87/130/27 88/131/27 86/129/27
f 87/130/27 89/132/27 88/131/27
f 89/132/27 90/133/27 88/131/27
f 89/132/27 91/134/27 90/133/27
f 91/134/27 92/135/27 90/133/27
f 91/134/27 93/136/27 92/135/27
f 93/136/27 94/137/27 92/135/27
f 93/136/27 95/138/27 94/137/27
f 95/138/27 96/139/27 94/137/27

usemtl carpetDarker
f 72/89/27 49/51/27 50/52/27
f 50/52/27 51/53/27 72/89/27
f 51/53/27 71/87/27 72/89/27
f 51/53/27 73/117/27 71/87/27
f 51/53/27 75/116/27 73/117/27
f 51/53/27 52/55/27 75/116/27
f 52/55/27 76/119/27 75/116/27
f 52/55/27 78/121/27 76/119/27
f 52/55/27 53/56/27 78/121/27
f 53/56/27 80/123/27 78/121/27
f 53/56/27 54/58/27 80/123/27
f 54/58/27 82/125/27 80/123/27
f 54/58/27 55/60/27 82/125/27
f 55/60/27 85/128/27 82/125/27
f 55/60/27 87/130/27 85/128/27
f 55/60/27 56/62/27 87/130/27
f 56/62/27 89/132/27 87/130/27
f 56/62/27 57/63/27 89/132/27
f 57/63/27 91/134/27 89/132/27
f 57/63/27 58/65/27 91/134/27
f 58/65/27 93/136/27 91/134/27
f 58/65/27 59/67/27 93/136/27
f 59/67/27 95/138/27 93/136/27
f 59/67/27 96/139/27 95/138/27
f 59/67/27 63/74/27 96/139/27
f 59/67/27 62/72/27 63/74/27
f 59/67/27 60/68/27 62/72/27
f 60/68/27 61/70/27 62/72/27
f 94/137/27 96/139/27 63/74/27
f 92/135/27 94/137/27 63/74/27
f 92/135/27 63/74/27 64/75/27
f 90/133/27 92/135/27 64/75/27
f 90/133/27 64/75/27 65/77/27
f 88/131/27 90/133/27 65/77/27
f 88/131/27 65/77/27 66/79/27
f 86/129/27 88/131/27 66/79/27
f 84/127/27 86/129/27 66/79/27
f 84/127/27 66/79/27 67/81/27
f 83/126/27 84/127/27 67/81/27
f 83/126/27 67/81/27 68/82/27
f 81/124/27 83/126/27 68/82/27
f 81/124/27 68/82/27 69/84/27
f 79/122/27 81/124/27 69/84/27
f 79/122/27 69/84/27 70/86/27
f 77/120/27 79/122/27 70/86/27
f 74/118/27 77/120/27 70/86/27
f 74/118/27 70/86/27 71/87/27
f 71/87/27 73/117/27 74/118/27

